<?xml version="1.0" encoding="iso-8859-1"?>
<!-- Uploaded to: SVG Repo, www.svgrepo.com, Generator: SVG Repo Mixer Tools -->
<svg version="1.1" id="Layer_1" xmlns="http://www.w3.org/2000/svg" xmlns:xlink="http://www.w3.org/1999/xlink" 
	 viewBox="0 0 512 512" xml:space="preserve">
<path style="fill:#E6E6E6;" d="M218.01,423.067c0,20.981,17.009,37.99,37.99,37.99s37.99-17.009,37.99-37.99"/>
<path style="fill:#CCCCCC;" d="M239.383,423.067H218.01c0,20.981,17.009,37.99,37.99,37.99c3.712,0,7.295-0.543,10.687-1.535
	C250.91,454.904,239.383,440.336,239.383,423.067z"/>
<path style="fill:#F7A872;" d="M359.364,424.848c0-57.086-46.277-103.364-103.364-103.364s-103.364,46.277-103.364,103.364H359.364z
	"/>
<path style="fill:#E09461;" d="M256.005,321.485c-24.967,0-45.197,46.277-45.197,103.358h-58.173
	C152.636,367.762,198.913,321.485,256.005,321.485z"/>
<g>
	<rect x="341.427" y="202.382" style="fill:#666666;" width="52.871" height="17.808"/>
	<rect x="117.711" y="202.382" style="fill:#666666;" width="52.871" height="17.808"/>
</g>
<path style="fill:#F7A872;" d="M303.592,50.943h-95.184c-5.612,0-10.161,4.549-10.161,10.161v39.395h115.507V61.104
	C313.753,55.492,309.204,50.943,303.592,50.943z"/>
<path style="fill:#E09461;" d="M228.699,50.943h-20.29c-5.612,0-10.161,4.549-10.161,10.161v39.395h30.452L228.699,50.943
	L228.699,50.943z"/>
<path style="fill:#4EB79B;" d="M316.847,95.143H195.153c-18.492,0-33.483,14.991-33.483,33.483v165.31
	c0,18.492,14.991,33.483,33.483,33.483h121.693c18.492,0,33.483-14.991,33.483-33.483v-165.31
	C350.33,110.134,335.339,95.143,316.847,95.143z"/>
<path style="fill:#40A084;" d="M204.41,293.938V128.626c0-18.492,14.991-33.483,33.483-33.483h-42.739
	c-18.492,0-33.483,14.991-33.483,33.483v165.31c0,18.492,14.991,33.483,33.483,33.483h42.739
	C219.4,327.42,204.41,312.429,204.41,293.938z"/>
<path style="fill:#E6E6E6;" d="M109.868,92.442H16.742C7.496,92.442,0,99.938,0,109.186v204.194c0,9.247,7.496,16.742,16.742,16.742
	h93.125c9.247,0,16.742-7.496,16.742-16.742V109.186C126.61,99.938,119.114,92.442,109.868,92.442z"/>
<path style="fill:#B3B3B3;" d="M101.295,217.217c3.278,0,5.936-2.658,5.936-5.936s-2.658-5.936-5.936-5.936H69.241v-54.018h32.054
	c3.278,0,5.936-2.658,5.936-5.936c0-3.278-2.658-5.936-5.936-5.936H69.241V120.46c0-3.278-2.658-5.936-5.936-5.936
	c-3.278,0-5.936,2.658-5.936,5.936v18.995H25.315c-3.278,0-5.936,2.658-5.936,5.936c0,3.278,2.658,5.936,5.936,5.936h32.054v54.018
	H25.315c-3.278,0-5.936,2.658-5.936,5.936s2.658,5.936,5.936,5.936h32.054v54.018H25.315c-3.278,0-5.936,2.658-5.936,5.936
	s2.658,5.936,5.936,5.936h32.054v18.995c0,3.278,2.658,5.936,5.936,5.936c3.278,0,5.936-2.658,5.936-5.936v-18.995h32.054
	c3.278,0,5.936-2.658,5.936-5.936s-2.658-5.936-5.936-5.936H69.241v-54.018H101.295z"/>
<path style="fill:#E6E6E6;" d="M495.258,92.442h-93.125c-9.246,0-16.742,7.496-16.742,16.742v204.194
	c0,9.247,7.496,16.742,16.742,16.742h93.125c9.246,0,16.742-7.496,16.742-16.742V109.186C512,99.938,504.504,92.442,495.258,92.442z
	"/>
<path style="fill:#B3B3B3;" d="M486.685,217.217c3.278,0,5.936-2.658,5.936-5.936s-2.658-5.936-5.936-5.936h-32.054v-54.018h32.054
	c3.278,0,5.936-2.658,5.936-5.936c0-3.278-2.658-5.936-5.936-5.936h-32.054V120.46c0-3.278-2.658-5.936-5.936-5.936
	c-3.278,0-5.936,2.658-5.936,5.936v18.995h-32.054c-3.278,0-5.936,2.658-5.936,5.936c0,3.278,2.658,5.936,5.936,5.936h32.054v54.018
	h-32.054c-3.278,0-5.936,2.658-5.936,5.936s2.658,5.936,5.936,5.936h32.054v54.018h-32.054c-3.278,0-5.936,2.658-5.936,5.936
	s2.658,5.936,5.936,5.936h32.054v18.995c0,3.278,2.658,5.936,5.936,5.936c3.278,0,5.936-2.658,5.936-5.936v-18.995h32.054
	c3.278,0,5.936-2.658,5.936-5.936s-2.658-5.936-5.936-5.936h-32.054v-54.018H486.685z"/>
<g>
	<circle style="fill:#8ED7E0;" cx="255.996" cy="164.308" r="29.68"/>
	<circle style="fill:#8ED7E0;" cx="255.996" cy="258.252" r="29.68"/>
</g>
<g>
	<path style="fill:#40A084;" d="M256.001,200.52c-19.966,0-36.21-16.243-36.21-36.21s16.243-36.21,36.21-36.21
		s36.21,16.243,36.21,36.21S275.967,200.52,256.001,200.52z M256.001,141.16c-12.765,0-23.15,10.386-23.15,23.15
		c0,12.765,10.386,23.15,23.15,23.15c12.765,0,23.15-10.386,23.15-23.15S268.765,141.16,256.001,141.16z"/>
	<path style="fill:#40A084;" d="M256.001,294.462c-19.966,0-36.21-16.243-36.21-36.21s16.243-36.21,36.21-36.21
		s36.21,16.243,36.21,36.21S275.967,294.462,256.001,294.462z M256.001,235.102c-12.765,0-23.15,10.386-23.15,23.15
		c0,12.765,10.386,23.15,23.15,23.15c12.765,0,23.15-10.386,23.15-23.15C279.151,245.488,268.765,235.102,256.001,235.102z"/>
</g>
</svg>