<?xml version="1.0" encoding="iso-8859-1"?>
<!-- Uploaded to: SVG Repo, www.svgrepo.com, Generator: SVG Repo Mixer Tools -->
<svg height="800px" width="800px" version="1.1" id="Layer_1" xmlns="http://www.w3.org/2000/svg" xmlns:xlink="http://www.w3.org/1999/xlink" 
	 viewBox="0 0 512 512" xml:space="preserve">
<path style="fill:#454545;" d="M242.143,218.337L203.5,179.693c-6.573-6.575-17.233-6.575-23.807,0
	c-6.574,6.574-6.574,17.233,0,23.807l38.643,38.643c3.287,3.287,7.596,4.93,11.904,4.93s8.617-1.643,11.903-4.93
	C248.718,235.569,248.719,224.911,242.143,218.337z"/>
<path style="fill:#2E2E2E;" d="M332.306,308.499l-38.643-38.643c-6.573-6.574-17.233-6.575-23.807,0
	c-6.574,6.574-6.574,17.233,0,23.807l38.643,38.643c3.287,3.287,7.596,4.93,11.904,4.93s8.616-1.644,11.903-4.93
	C338.88,325.732,338.88,315.074,332.306,308.499z"/>
<path style="fill:#454545;" d="M364.317,164.517c-4.308,0-8.617-1.643-11.903-4.931c-6.574-6.574-6.574-17.233,0-23.807
	l28.504-28.504c6.573-6.574,17.233-6.574,23.807,0c6.574,6.574,6.574,17.233,0,23.807l-28.504,28.504
	C372.933,162.873,368.625,164.517,364.317,164.517z"/>
<g>
	<path style="fill:#224E7D;" d="M335.142,243.624c0-4.464-1.773-8.746-4.93-11.903l-49.932-49.932
		c-6.574-6.574-17.234-6.573-23.807,0L106.675,331.585c-3.158,3.157-4.931,7.438-4.931,11.903s1.773,8.747,4.931,11.904
		l49.932,49.932c3.287,3.288,7.596,4.93,11.903,4.931c4.307,0,8.617-1.644,11.904-4.931l149.796-149.796
		C333.369,252.371,335.142,248.089,335.142,243.624z"/>
	<path style="fill:#224E7D;" d="M445.233,512c-4.308,0-8.617-1.643-11.904-4.931L283.533,357.272
		c-6.574-6.574-6.574-17.233,0-23.807l49.932-49.932c6.574-6.574,17.233-6.574,23.807,0L507.069,433.33
		c6.574,6.574,6.574,17.233,0,23.807l-49.932,49.932C453.85,510.357,449.541,512,445.233,512z"/>
</g>
<path style="fill:#FFAE00;" d="M376.221,135.779c-20.377-20.377-53.36-20.379-73.739,0l-9.778,9.778
	c-6.574,6.574-6.574,17.233,0,23.807l49.932,49.932c6.573,6.573,17.233,6.575,23.807,0l9.778-9.778
	C396.551,189.189,396.551,156.109,376.221,135.779z"/>
<g>
	<path style="fill:#DE9700;" d="M386.632,312.893h-82.527l-20.572,20.572c-3.591,3.59-5.206,8.399-4.874,13.096H420.3
		L386.632,312.893z"/>
	<polygon style="fill:#DE9700;" points="453.03,379.292 305.552,379.292 339.22,412.96 486.699,412.96 	"/>
	<path style="fill:#DE9700;" d="M371.952,445.691l33.668,33.668h79.227l22.222-22.222c3.17-3.17,4.797-7.291,4.909-11.446H371.952z"
		/>
</g>
<path style="fill:#306EB0;" d="M166.631,233.398c-4.308,0-8.617-1.643-11.903-4.93L4.931,78.67c-6.574-6.574-6.574-17.233,0-23.807
	L54.863,4.931c6.573-6.574,17.233-6.574,23.807,0l149.796,149.797c6.574,6.574,6.574,17.233,0,23.807l-49.932,49.932
	C175.248,231.755,170.939,233.398,166.631,233.398z"/>
<g>
	<path style="fill:#FFAE00;" d="M195.739,122l-33.668-33.668v144.429c1.489,0.417,3.023,0.636,4.56,0.636
		c4.308,0,8.617-1.643,11.904-4.93l17.206-17.206V122H195.739z"/>
	<polygon style="fill:#FFAE00;" points="99.039,172.779 132.708,206.447 132.708,58.969 99.039,25.3 	"/>
	<path style="fill:#FFAE00;" d="M34.884,108.624l33.668,33.668V0.102c-4.883-0.518-9.948,1.086-13.69,4.829L34.884,24.91V108.624z"
		/>
</g>
<path style="fill:#454545;" d="M87.63,474.501c-4.308,0-8.617-1.643-11.903-4.93l-34.886-34.885c-6.574-6.574-6.574-17.233,0-23.807
	c6.573-6.574,17.233-6.574,23.807,0l34.886,34.885c6.574,6.574,6.574,17.233,0,23.807C96.247,472.858,91.939,474.501,87.63,474.501z
	"/>
<path style="fill:#2E2E2E;" d="M130.483,447.52c-4.308,0-8.617-1.643-11.903-4.93l-50.757-50.756
	c-6.574-6.573-6.574-17.233,0-23.807c6.573-6.574,17.233-6.574,23.807,0l50.757,50.756c6.574,6.573,6.574,17.233,0,23.807
	C139.1,445.876,134.792,447.52,130.483,447.52z"/>
<path style="fill:#DE9700;" d="M376.221,135.779l-58.551,58.551l24.966,24.966c6.573,6.573,17.233,6.575,23.807,0l9.778-9.778
	C396.551,189.189,396.551,156.109,376.221,135.779z"/>
<path style="fill:#306EB0;" d="M305.244,206.755l-24.966-24.966c-6.574-6.574-17.234-6.573-23.807,0L106.675,331.585
	c-3.158,3.157-4.931,7.438-4.931,11.903s1.773,8.747,4.931,11.904l24.966,24.966L305.244,206.755z"/>
</svg>